<?xml version="1.0" encoding="UTF-8" standalone="no"?>
<svg width="64" height="64" viewBox="0 0 64 64" xmlns="http://www.w3.org/2000/svg">
  <rect width="64" height="64" rx="32" fill="#0a1628"/>
  <g fill="none" stroke-linecap="round">
    <!-- Left backbone -->
    <path d="M22 4 C28 14, 20 28, 26 38 C32 48, 22 56, 22 60" stroke="#00d4aa" stroke-width="2.5"/>
    <!-- Right backbone -->
    <path d="M42 4 C36 14, 44 28, 38 38 C32 48, 42 56, 42 60" stroke="#00d4aa" stroke-width="2.5"/>
    <!-- Base pairs -->
    <line x1="23.5" y1="12" x2="39.5" y2="12" stroke="#4fc3f7" stroke-width="2"/>
    <circle cx="23.5" cy="12" r="2" fill="#4fc3f7"/>
    <circle cx="39.5" cy="12" r="2" fill="#4fc3f7"/>
    <line x1="25" y1="20" x2="37" y2="20" stroke="#00e5ff" stroke-width="2"/>
    <circle cx="25" cy="20" r="2" fill="#00e5ff"/>
    <circle cx="37" cy="20" r="2" fill="#00e5ff"/>
    <line x1="22" y1="28" x2="41" y2="28" stroke="#4fc3f7" stroke-width="2.5"/>
    <circle cx="22" cy="28" r="2" fill="#4fc3f7"/>
    <circle cx="41" cy="28" r="2" fill="#4fc3f7"/>
    <line x1="24.5" y1="36" x2="38" y2="36" stroke="#00e5ff" stroke-width="2"/>
    <circle cx="24.5" cy="36" r="2" fill="#00e5ff"/>
    <circle cx="38" cy="36" r="2" fill="#00e5ff"/>
    <line x1="23" y1="44" x2="40" y2="44" stroke="#4fc3f7" stroke-width="2"/>
    <circle cx="23" cy="44" r="2" fill="#4fc3f7"/>
    <circle cx="40" cy="44" r="2" fill="#4fc3f7"/>
    <line x1="25" y1="52" x2="36.5" y2="52" stroke="#00e5ff" stroke-width="2"/>
    <circle cx="25" cy="52" r="2" fill="#00e5ff"/>
    <circle cx="36.5" cy="52" r="2" fill="#00e5ff"/>
  </g>
</svg>