<?xml version="1.0" encoding="UTF-8" standalone="no"?>
<svg width="64" height="64" viewBox="0 0 64 64" xmlns="http://www.w3.org/2000/svg">
  <rect width="64" height="64" rx="14" fill="#0a1628"/>
  <g fill="none" stroke-linecap="round">
    <!-- Left backbone -->
    <path d="M18 6 C24 16, 16 30, 22 40 C28 50, 18 58, 18 58" stroke="#00d4aa" stroke-width="2.5"/>
    <!-- Right backbone -->
    <path d="M46 6 C40 16, 48 30, 42 40 C36 50, 46 58, 46 58" stroke="#00d4aa" stroke-width="2.5"/>
    <!-- Base pairs top to bottom -->
    <line x1="20" y1="14" x2="42.5" y2="14" stroke="#4fc3f7" stroke-width="2"/>
    <circle cx="20" cy="14" r="2" fill="#4fc3f7"/>
    <circle cx="42.5" cy="14" r="2" fill="#4fc3f7"/>

    <line x1="22.5" y1="22" x2="39" y2="22" stroke="#00e5ff" stroke-width="2"/>
    <circle cx="22.5" cy="22" r="2" fill="#00e5ff"/>
    <circle cx="39" cy="22" r="2" fill="#00e5ff"/>

    <line x1="18.5" y1="30" x2="44" y2="30" stroke="#4fc3f7" stroke-width="2.5"/>
    <circle cx="18.5" cy="30" r="2" fill="#4fc3f7"/>
    <circle cx="44" cy="30" r="2" fill="#4fc3f7"/>

    <line x1="22" y1="38" x2="40" y2="38" stroke="#00e5ff" stroke-width="2"/>
    <circle cx="22" cy="38" r="2" fill="#00e5ff"/>
    <circle cx="40" cy="38" r="2" fill="#00e5ff"/>

    <line x1="19" y1="46" x2="43" y2="46" stroke="#4fc3f7" stroke-width="2"/>
    <circle cx="19" cy="46" r="2" fill="#4fc3f7"/>
    <circle cx="43" cy="46" r="2" fill="#4fc3f7"/>

    <line x1="21.5" y1="54" x2="40.5" y2="54" stroke="#00e5ff" stroke-width="2"/>
    <circle cx="21.5" cy="54" r="2" fill="#00e5ff"/>
    <circle cx="40.5" cy="54" r="2" fill="#00e5ff"/>
  </g>
</svg>