<?xml version="1.0" encoding="UTF-8" standalone="no"?>
<svg width="64" height="64" viewBox="0 0 64 64" xmlns="http://www.w3.org/2000/svg">
  <rect width="64" height="64" rx="14" fill="#0a1628"/>
  <g stroke="none">
    <path d="M18 10 C24 20, 24 44, 18 54" stroke="#00d4aa" stroke-width="2.5" fill="none" stroke-linecap="round"/>
    <path d="M46 10 C40 20, 40 44, 46 54" stroke="#00d4aa" stroke-width="2.5" fill="none" stroke-linecap="round"/>
    <line x1="20" y1="16" x2="44" y2="16" stroke="#4fc3f7" stroke-width="2" stroke-linecap="round"/>
    <line x1="19" y1="24" x2="45" y2="24" stroke="#4fc3f7" stroke-width="2" stroke-linecap="round"/>
    <line x1="18.5" y1="32" x2="45.5" y2="32" stroke="#4fc3f7" stroke-width="2.5" stroke-linecap="round"/>
    <line x1="19" y1="40" x2="45" y2="40" stroke="#4fc3f7" stroke-width="2" stroke-linecap="round"/>
    <line x1="20" y1="48" x2="44" y2="48" stroke="#4fc3f7" stroke-width="2" stroke-linecap="round"/>
    <circle cx="22" cy="16" r="1.8" fill="#00e5ff"/>
    <circle cx="42" cy="16" r="1.8" fill="#00e5ff"/>
    <circle cx="21" cy="24" r="1.8" fill="#00e5ff"/>
    <circle cx="43" cy="24" r="1.8" fill="#00e5ff"/>
    <circle cx="20.5" cy="32" r="1.8" fill="#00e5ff"/>
    <circle cx="43.5" cy="32" r="1.8" fill="#00e5ff"/>
    <circle cx="21" cy="40" r="1.8" fill="#00e5ff"/>
    <circle cx="43" cy="40" r="1.8" fill="#00e5ff"/>
    <circle cx="22" cy="48" r="1.8" fill="#00e5ff"/>
    <circle cx="42" cy="48" r="1.8" fill="#00e5ff"/>
  </g>
</svg>
