<svg version="1.2" xmlns="http://www.w3.org/2000/svg" viewBox="0 0 1500 500" width="1500" height="500">
	<defs>
		<radialGradient id="g1" cx="0" cy="0" r="1" gradientUnits="userSpaceOnUse" gradientTransform="matrix(330.705,-2.949,2.949,330.705,751.373,283.415)">
			<stop offset="0" stop-color="#2c315e"/>
			<stop offset="1" stop-color="#101020"/>
		</radialGradient>
	</defs>
	<style>
		.s0 { fill: url(#g1) } 
		.s1 { fill: #ffffff } 
	</style>
	<g id="BACKGROUND">
		<path fill-rule="evenodd" class="s0" d="m-5.72-10.79h1511.44v519.19h-1511.44z"/>
	</g>
	<g>
		<g id="SYMBOL">
			<g>
				<path class="s1" d="m544.42 405.31c-39.72-68.26-79.62-136.82-120.32-206.76-40.28 69.77-79.96 138.53-119.59 207.19h-61.51c60.46-104.5 181.27-311.74 181.27-311.74 0 0 121.33 206.76 181.78 311.31 0 0-61.64 0-61.63 0z"/>
			</g>
			<g>
				<path class="s1" d="m501.71 405.6h-156.08c10.39-18.07 20.44-35.56 30.42-52.9h95.91c9.73 17.29 19.4 34.5 29.75 52.9z"/>
			</g>
		</g>
		<g id="AGENT ZERO TEXT">
			<g>
				<path class="s1" d="m1030.27 342.81c6.2 9.48 12.04 18.4 18.57 28.39h-20.2c-5.81-7.9-12.12-16.48-18.33-24.93h-22.94v24.83h-16.22v-85.37c9.53 0 18.64-0.07 27.74 0.02 7.46 0.08 15.03-0.4 22.35 0.7 11.95 1.8 21.25 8.17 23.78 20.61 2.61 12.88 0.51 24.88-11.28 33.22-1 0.71-1.97 1.44-3.47 2.53zm-42.87-12.82c10.8 0 21.19 0.59 31.46-0.21 6.82-0.53 9.84-5.69 10.03-12.63 0.19-7.26-2.87-12.88-9.84-13.56-10.41-1.02-21-0.27-31.64-0.27v26.67z"/>
			</g>
			<g>
				<path class="s1" d="m768.63 286.19v12.18c-16.63 18.68-33.1 37.2-50.85 57.13h50.46v15.71h-72.28v-16.47c14.92-16.55 30.18-33.47 46.97-52.11h-46.76v-16.44c0 0 72.45 0 72.46 0z"/>
			</g>
			<g>
				<path class="s1" d="m1056.41 130.61c20.47 20.29 39.72 39.37 60.12 59.59v-48.88h15.05v86.11c-20.38-19.98-39.71-38.93-60.34-59.15v51.58h-14.84c0 0 0-89.25 0.01-89.25z"/>
			</g>
			<g>
				<path class="s1" d="m1118.33 350.44c4.38-2.17 10.65-5 14.42-6.87 13.16 17.55 33.36 13.5 42.02 5.71 8.65-7.79 11.25-19.04 8-30.31-4.24-10.9-13.64-19.41-27.42-18.93-13.77 0.48-25.89 10.29-27.05 26.78h-15.97c-0.19-15.91 11.52-34.73 29.89-40.25 23.1-6.95 46.01 4.2 54.63 26.6 8 20.75-1.82 44-22.92 54.29-19.27 9.4-44.51 2.22-55.6-17.02z"/>
			</g>
			<g>
				<path class="s1" d="m860.55 152.92c-3.51 2.66-7.8 5.61-10.84 7.92-17.78-14.71-37.98-9.8-45.19 8.66-4.33 12.12 1.99 28.01 15.3 32.91 11.58 4.25 24.4-0.2 27.73-10-2.75-0.83-5.49-1.66-8.97-2.71-0.29-4.08-0.59-8.15-0.94-12.99h30.75c2.3 17.79-11.88 37.51-29.99 41.97-20.02 4.94-41.07-6.09-48.36-25.34-7.19-18.98 1.53-41.68 19.65-51.17 17.75-9.31 40.24-4.88 50.85 10.76z"/>
			</g>
			<g>
				<path class="s1" d="m691.65 135.37c15.31 29.31 29.55 56.57 44.42 85.05h-16.97c-8.86-16.05-17.93-32.49-27.54-49.89-9.19 17.24-17.81 33.43-26.61 49.95h-17.32c14.57-28.16 28.83-55.73 44.02-85.11z"/>
			</g>
			<g>
				<path class="s1" d="m1213.07 154.63h-28.57v-14.68h71.83v14.69h-27.44v65.38h-15.82z"/>
			</g>
			<g>
				<path class="s1" d="m855.48 301.57v20.88l20.03 0.29c0 0 0 9.53 0 15.98-8.16 0.29-16.86 0.14-24.89-1.76-6.78-1.6-11.66-7.18-11.96-14.62-0.48-11.74-0.13-24.09-0.13-36.59h68.75v15.82z"/>
			</g>
			<g>
				<path class="s1" d="m838.68 370.97v-21.79c4.48-0.2 8.65-0.4 13.01-0.6 1.1 2.22 0.98 6.29 3.16 6.38 2.19 0.1 34.19 0 52.09 0v16.01z"/>
			</g>
			<g>
				<path class="s1" d="m947.41 155.52v19.32l18.53 0.26c0 0 0 8.83 0 14.79-7.58 0.13-15.6 0.13-23.02-1.62-6.28-1.49-10.79-6.65-11.07-13.53-0.44-10.86-0.11-22.29-0.11-33.85h63.6v14.63z"/>
			</g>
			<g>
				<path class="s1" d="m931.87 219.72v-20.15c4.15-0.2 8-0.37 12.04-0.55 1.01 2.05 0.9 5.82 2.92 5.9 2.02 0.08 31.62 0 48.18 0v14.8z"/>
			</g>
		</g>
	</g>
</svg>